<?xml version="1.0" encoding="UTF-8" standalone="no"?>
<svg
   xmlns:dc="http://purl.org/dc/elements/1.1/"
   xmlns:cc="http://creativecommons.org/ns#"
   xmlns:rdf="http://www.w3.org/1999/02/22-rdf-syntax-ns#"
   xmlns:svg="http://www.w3.org/2000/svg"
   xmlns="http://www.w3.org/2000/svg"
   xmlns:sodipodi="http://sodipodi.sourceforge.net/DTD/sodipodi-0.dtd"
   xmlns:inkscape="http://www.inkscape.org/namespaces/inkscape"
   width="443.84201"
   viewBox="0 0 332.78288 112.53558"
   height="150.04744"
   preserveAspectRatio="xMidYMid meet"
   version="1.1"
   id="svg163"
   sodipodi:docname="logo.svg"
   inkscape:version="0.92.4 (5da689c313, 2019-01-14)">
  <metadata
     id="metadata167">
    <rdf:RDF>
      <cc:Work
         rdf:about="">
        <dc:format>image/svg+xml</dc:format>
        <dc:type
           rdf:resource="http://purl.org/dc/dcmitype/StillImage" />
        <dc:title />
      </cc:Work>
    </rdf:RDF>
  </metadata>
  <sodipodi:namedview
     pagecolor="#ffffff"
     bordercolor="#666666"
     borderopacity="1"
     objecttolerance="10"
     gridtolerance="10"
     guidetolerance="10"
     inkscape:pageopacity="0"
     inkscape:pageshadow="2"
     inkscape:window-width="1920"
     inkscape:window-height="1200"
     id="namedview165"
     showgrid="false"
     fit-margin-top="0"
     fit-margin-left="0"
     fit-margin-right="0"
     fit-margin-bottom="0"
     inkscape:zoom="1.9327585"
     inkscape:cx="228.96101"
     inkscape:cy="28.324882"
     inkscape:window-x="0"
     inkscape:window-y="0"
     inkscape:window-maximized="1"
     inkscape:current-layer="svg163" />
  <defs
     id="defs7">
    <g
       id="g2" />
    <clipPath
       id="00c5da497f">
      <path
         d="M 44,37.808594 H 382 V 42 H 44 Z m 0,0"
         id="path4"
         inkscape:connector-curvature="0"
         style="clip-rule:nonzero" />
    </clipPath>
  </defs>
  <path
     d="m 0.7673587,23.210937 c 0,-0.570312 0.457032,-1.078125 1.078126,-1.078125 H 15.029078 c 6.675781,0 12.167969,4.585938 12.167969,10.535156 0,4.367188 -3.910156,7.535157 -6.570312,8.953126 3,1.246093 7.585937,4.015624 7.585937,9.226562 0,6.339844 -5.601563,10.929688 -12.339844,10.929688 H 1.8376717 c -0.625,0 -1.078125,-0.507813 -1.078125,-1.078126 V 23.210937 Z M 14.013453,38.21875 c 2.15625,0 3.960938,-1.808594 3.960938,-4.078125 0,-2.273438 -1.804688,-3.847657 -3.960938,-3.847657 H 9.5993907 v 7.925782 z m 0.738282,15.453125 c 2.207031,0 4.078124,-1.808594 4.078124,-4.132813 0,-2.324218 -2.429687,-3.964844 -4.636718,-3.964844 H 9.6072027 v 8.097657 h 5.1562503 z m 0,0"
     id="path9"
     inkscape:connector-curvature="0"
     style="fill:#ffffff;fill-opacity:1;fill-rule:nonzero" />
  <path
     d="m 35.411891,23.210937 c 0,-0.570312 0.453125,-1.078125 1.078125,-1.078125 h 16.917969 c 6.792972,0 12.339842,5.496094 12.339842,12.230469 0,5.207031 -3.45312,9.394531 -8.3789,11.382813 l 7.7539,14.382812 c 0.39063,0.738281 0,1.636719 -0.96094,1.636719 h -7.53125 c -0.45312,0 -0.79296,-0.285157 -0.90625,-0.507813 L 48.193141,46.25 h -3.90625 v 14.441406 c 0,0.566406 -0.507813,1.074219 -1.078125,1.074219 h -6.738281 c -0.621094,0 -1.078126,-0.507813 -1.078126,-1.074219 V 23.210937 Z M 52.669703,39.0625 c 2.324224,0 4.300784,-2.152344 4.300784,-4.53125 0,-2.378906 -1.98438,-4.300782 -4.300784,-4.300782 h -8.375 V 39.0625 Z m 0,0"
     id="path11"
     inkscape:connector-curvature="0"
     style="fill:#ffffff;fill-opacity:1;fill-rule:nonzero" />
  <path
     d="m 73.322047,23.210937 c 0,-0.570312 0.50781,-1.078125 1.07422,-1.078125 h 6.79297 c 0.57031,0 1.07812,0.507813 1.07812,1.078125 v 37.488281 c 0,0.570313 -0.50781,1.078126 -1.07812,1.078126 h -6.79297 c -0.56641,0 -1.07422,-0.507813 -1.07422,-1.078126 z m 0,0"
     id="path13"
     inkscape:connector-curvature="0"
     style="fill:#ffffff;fill-opacity:1;fill-rule:nonzero" />
  <path
     d="m 109.48611,21.625 c 4.75391,0 9.96094,1.984375 13.80469,5.328125 0.50781,0.398437 0.57031,1.074219 0.11719,1.53125 l -4.46875,4.753906 c -0.45313,0.402344 -1.07813,0.402344 -1.53125,0.05469 -2.15625,-1.988281 -4.63672,-2.714843 -7.41407,-2.714843 -6.16796,0 -11.144533,5.207031 -11.144533,11.433593 0,6.226563 5.039073,11.265626 11.207033,11.265626 1.63672,0 3.33594,-0.222657 5.03516,-0.90625 V 49.08594 h -3.55859 c -0.625,0 -1.07813,-0.457031 -1.07813,-1.015625 v -5.605468 c 0,-0.621094 0.45313,-1.074219 1.07813,-1.074219 h 11.375 c 0.57031,0 1.01562,0.507812 1.01562,1.074219 l 0.0547,15.230468 c 0,0.285156 -0.22266,0.742188 -0.45703,0.910156 0,0 -5.82813,3.679688 -14.03516,3.679688 -11.261723,0 -20.320313,-8.953125 -20.320313,-20.273438 0,-11.320312 9.05078,-20.386718 20.320313,-20.386718 z m 0,0"
     id="path15"
     inkscape:connector-curvature="0"
     style="fill:#ffffff;fill-opacity:1;fill-rule:nonzero" />
  <path
     d="m 131.7283,23.210937 c 0,-0.570312 0.50781,-1.078125 1.07812,-1.078125 h 6.73829 c 0.62109,0 1.07812,0.507813 1.07812,1.078125 v 14.269531 h 16.17969 V 23.210937 c 0,-0.570312 0.45312,-1.078125 1.07812,-1.078125 h 6.73828 c 0.57032,0 1.07813,0.507813 1.07813,1.078125 v 37.488281 c 0,0.570313 -0.50781,1.078126 -1.07813,1.078126 h -6.73828 c -0.625,0 -1.07812,-0.507813 -1.07812,-1.078126 V 45.804687 h -16.17969 v 14.894531 c 0,0.570313 -0.45703,1.078126 -1.07812,1.078126 h -6.73829 c -0.57031,0 -1.07812,-0.507813 -1.07812,-1.078126 z m 0,0"
     id="path17"
     inkscape:connector-curvature="0"
     style="fill:#ffffff;fill-opacity:1;fill-rule:nonzero" />
  <path
     d="m 180.50564,30.453125 h -8.08984 c -0.625,0 -1.07813,-0.507813 -1.07813,-1.078125 v -6.171875 c 0,-0.570313 0.45313,-1.078125 1.07813,-1.078125 h 25.12891 c 0.62109,0 1.07421,0.507812 1.07421,1.078125 V 29.375 c 0,0.570312 -0.45312,1.078125 -1.07421,1.078125 h -8.09375 v 30.238281 c 0,0.566406 -0.50782,1.074219 -1.07422,1.074219 h -6.79297 c -0.57031,0 -1.07813,-0.507813 -1.07813,-1.074219 z m 0,0"
     id="path19"
     inkscape:connector-curvature="0"
     style="fill:#ffffff;fill-opacity:1;fill-rule:nonzero" />
  <path
     d="m 223.06033,21.5625 c 5.77734,0 10.07813,1.925781 13.75391,5.265625 0.28515,0.285156 0.33984,0.738281 0.0547,1.015625 l -0.91015,0.960937 c -0.33594,0.335938 -0.6211,0.285157 -0.96094,-0.05469 -3.22266,-2.886719 -7.29687,-4.640625 -11.94531,-4.640625 -9.90625,0 -17.66016,8.097656 -17.66016,17.894531 0,9.796875 7.75391,17.777344 17.66016,17.777344 4.87109,0 8.54687,-1.925782 11.94531,-4.757813 0.33984,-0.285156 0.67578,-0.285156 0.91016,-0.113281 l 0.96093,0.960938 c 0.28516,0.222656 0.28516,0.675781 0,0.960937 -3.84765,3.742187 -8.76953,5.496095 -13.80859,5.496095 -11.32031,0 -20.48047,-8.94922 -20.48047,-20.32422 0,-11.375 9.16797,-20.441406 20.48047,-20.441406 z m 0,0"
     id="path21"
     inkscape:connector-curvature="0"
     style="fill:#ffffff;fill-opacity:1;fill-rule:nonzero" />
  <path
     d="m 263.41971,21.5625 c 11.375,0 20.42578,9.121094 20.42578,20.441406 0,11.320312 -9.05078,20.32422 -20.42578,20.32422 -11.375,0 -20.375,-8.94922 -20.375,-20.32422 0,-11.375 9.05078,-20.441406 20.375,-20.441406 z m 0,38.28125 c 9.90625,0 17.93359,-7.925782 17.93359,-17.839844 0,-9.914062 -8.03516,-17.949219 -17.93359,-17.949219 -9.89844,0 -17.88282,8.042969 -17.88282,17.949219 0,9.902344 7.98438,17.839844 17.88282,17.839844 z m 0,0"
     id="path23"
     inkscape:connector-curvature="0"
     style="fill:#ffffff;fill-opacity:1;fill-rule:nonzero" />
  <path
     d="m 297.87674,21.964844 c 0.0508,-0.222657 0.28125,-0.402344 0.5039,-0.402344 h 0.625 c 0.28516,0 0.45313,0.117187 0.57032,0.402344 l 11.66015,34.769531 h 0.11328 l 11.71485,-34.769531 c 0.11718,-0.285157 0.28515,-0.402344 0.57031,-0.402344 h 0.62109 c 0.22266,0 0.45703,0.167968 0.50782,0.402344 l 8.03906,39.070312 c 0.11719,0.570312 -0.11719,0.742188 -0.625,0.742188 h -1.35938 c -0.33984,0 -0.625,-0.285157 -0.67578,-0.625 l -6.39062,-33.1875 h -0.11719 l -11.42969,33.917968 c -0.11719,0.339844 -0.45312,0.453124 -0.79297,0.453124 h -0.22265 c -0.28516,0 -0.6211,-0.0508 -0.73828,-0.453124 L 299.02127,27.964844 h -0.11328 l -6.39063,33.1875 c -0.0547,0.339843 -0.33984,0.625 -0.67578,0.625 h -1.36328 c -0.50781,0 -0.73828,-0.171876 -0.625,-0.742188 l 8.03906,-39.070312 z m 0,0"
     id="path25"
     inkscape:connector-curvature="0"
     style="fill:#ffffff;fill-opacity:1;fill-rule:nonzero" />
  <g
     clip-path="url(#00c5da497f)"
     id="g29"
     transform="translate(-46.459203,-37.808594)"
     style="stroke:#ffffff;stroke-opacity:1">
    <path
       transform="matrix(0.890097,0,0,0.890665,-613.74006,37.808237)"
       d="M 741.66068,2.00031 H 1115.641"
       stroke-miterlimit="10"
       id="path27"
       inkscape:connector-curvature="0"
       style="fill:none;stroke:#ffffff;stroke-width:4;stroke-linecap:butt;stroke-linejoin:miter;stroke-miterlimit:10;stroke-opacity:1" />
  </g>
  <path
     d="M -0.04931701,81.042947 H 332.82944"
     stroke-miterlimit="10"
     id="path31"
     inkscape:connector-curvature="0"
     style="fill:none;stroke:#ffffff;stroke-width:3.56152391;stroke-linecap:butt;stroke-linejoin:miter;stroke-miterlimit:10;stroke-opacity:1" />
  <g
     id="g39"
     style="fill:#ffffff;fill-opacity:1"
     transform="translate(-14.251351,-47.509754)">
    <g
       transform="translate(145.41506,153.70159)"
       id="g37"
       style="fill:#ffffff;fill-opacity:1">
      <g
         id="g35"
         style="fill:#ffffff;fill-opacity:1">
        <path
           d="M 6.703125,-0.765625 V 0 H 0.296875 V -0.765625 L 2.5,-1.171875 9.15625,-19.6875 h 2.765625 l 6.90625,18.515625 2.46875,0.40625 V 0 h -8.25 v -0.765625 l 2.625,-0.40625 -1.9375,-5.625 h -7.6875 l -1.953125,5.625 z m 3.125,-16.8125 -3.34375,9.46875 h 6.796875 z m 0,0"
           id="path33"
           inkscape:connector-curvature="0"
           style="fill:#ffffff;fill-opacity:1" />
      </g>
    </g>
  </g>
  <g
     id="g45"
     style="fill:#1d1d1b;fill-opacity:1"
     transform="translate(-46.459203,-37.808594)">
    <g
       transform="translate(165.28719,153.70159)"
       id="g43">
      <g
         id="g41" />
    </g>
  </g>
  <g
     id="g53"
     style="fill:#ffffff;fill-opacity:1"
     transform="translate(-14.251351,-47.509754)">
    <g
       transform="translate(172.73569,153.70159)"
       id="g51"
       style="fill:#ffffff;fill-opacity:1">
      <g
         id="g49"
         style="fill:#ffffff;fill-opacity:1">
        <path
           d="M 2.21875,-12.671875 0.65625,-13.03125 V -13.6875 H 4.5 l 0.03125,0.796875 c 0.40625,-0.34375 0.945312,-0.617187 1.625,-0.828125 0.6875,-0.21875 1.382812,-0.328125 2.09375,-0.328125 1.75,0 3.097656,0.609375 4.046875,1.828125 0.957031,1.210938 1.4375,2.949219 1.4375,5.21875 0,2.324219 -0.523437,4.121094 -1.5625,5.390625 C 11.128906,-0.335938 9.625,0.296875 7.65625,0.296875 6.5625,0.296875 5.519531,0.1875 4.53125,-0.03125 4.582031,0.664062 4.609375,1.210938 4.609375,1.609375 V 5.3125 L 7,5.65625 v 0.6875 H 0.484375 V 5.65625 L 2.21875,5.3125 Z M 11.109375,-7 c 0,-1.863281 -0.304687,-3.25 -0.90625,-4.15625 -0.605469,-0.90625 -1.523437,-1.359375 -2.75,-1.359375 -1.136719,0 -2.085937,0.164063 -2.84375,0.484375 v 10.921875 c 0.863281,0.167969 1.8125,0.25 2.84375,0.25 2.4375,0 3.65625,-2.046875 3.65625,-6.140625 z m 0,0"
           id="path47"
           inkscape:connector-curvature="0"
           style="fill:#ffffff;fill-opacity:1" />
      </g>
    </g>
  </g>
  <g
     id="g61"
     style="fill:#ffffff;fill-opacity:1"
     transform="translate(-14.251351,-47.509754)">
    <g
       transform="translate(187.63269,153.70159)"
       id="g59"
       style="fill:#ffffff;fill-opacity:1">
      <g
         id="g57"
         style="fill:#ffffff;fill-opacity:1">
        <path
           d="m 6.765625,-13.984375 c 1.488281,0 2.582031,0.308594 3.28125,0.921875 0.707031,0.605469 1.0625,1.539062 1.0625,2.796875 v 9.25 L 12.8125,-0.65625 V 0 h -3.75 L 8.78125,-1.375 c -1.105469,1.117188 -2.515625,1.671875 -4.234375,1.671875 -2.335937,0 -3.5,-1.359375 -3.5,-4.078125 0,-0.914062 0.175781,-1.671875 0.53125,-2.265625 0.351563,-0.59375 0.914063,-1.046875 1.6875,-1.359375 0.78125,-0.320312 1.910156,-0.5 3.390625,-0.53125 L 8.703125,-7.984375 V -10.125 c 0,-0.945312 -0.171875,-1.644531 -0.515625,-2.09375 -0.34375,-0.445312 -0.875,-0.671875 -1.59375,-0.671875 -0.96875,0 -1.859375,0.230469 -2.671875,0.6875 L 3.4375,-10.5 H 2.625 v -2.984375 c 1.5625,-0.332031 2.941406,-0.5 4.140625,-0.5 z m 1.9375,7.015625 -1.90625,0.046875 C 5.492188,-6.867188 4.613281,-6.613281 4.15625,-6.15625 3.695312,-5.695312 3.46875,-4.9375 3.46875,-3.875 c 0,1.710938 0.691406,2.5625 2.078125,2.5625 0.65625,0 1.222656,-0.070312 1.703125,-0.21875 0.476562,-0.15625 0.960938,-0.347656 1.453125,-0.578125 z m 0,0"
           id="path55"
           inkscape:connector-curvature="0"
           style="fill:#ffffff;fill-opacity:1" />
      </g>
    </g>
  </g>
  <g
     id="g69"
     style="fill:#ffffff;fill-opacity:1"
     transform="translate(-14.251351,-47.509754)">
    <g
       transform="translate(200.85669,153.70159)"
       id="g67"
       style="fill:#ffffff;fill-opacity:1">
      <g
         id="g65"
         style="fill:#ffffff;fill-opacity:1">
        <path
           d="m 9.65625,-14.046875 v 3.703125 h -0.625 L 8.1875,-11.953125 c -0.480469,0 -1.054688,0.07031 -1.71875,0.203125 -0.667969,0.125 -1.242188,0.296875 -1.71875,0.515625 v 10.21875 L 7.078125,-0.65625 V 0 H 0.59375 v -0.65625 l 1.734375,-0.359375 v -11.65625 L 0.59375,-13.03125 v -0.65625 h 3.984375 l 0.140625,1.703125 c 0.582031,-0.476563 1.367188,-0.941406 2.359375,-1.390625 0.988281,-0.445312 1.773437,-0.671875 2.359375,-0.671875 z m 0,0"
           id="path63"
           inkscape:connector-curvature="0"
           style="fill:#ffffff;fill-opacity:1" />
      </g>
    </g>
  </g>
  <g
     id="g77"
     style="fill:#ffffff;fill-opacity:1"
     transform="translate(-14.251351,-47.509754)">
    <g
       transform="translate(210.77832,153.70159)"
       id="g75"
       style="fill:#ffffff;fill-opacity:1">
      <g
         id="g73"
         style="fill:#ffffff;fill-opacity:1">
        <path
           d="m 4.859375,0.296875 c -0.929687,0 -1.625,-0.2773438 -2.09375,-0.828125 -0.460937,-0.5625 -0.6875,-1.34375 -0.6875,-2.34375 v -9.578125 h -1.78125 v -0.65625 l 1.8125,-0.578125 1.46875,-3.09375 H 4.5 v 3.09375 h 3.125 v 1.234375 H 4.5 V -3.125 c 0,0.625 0.140625,1.101562 0.421875,1.421875 0.289063,0.324219 0.664063,0.484375 1.125,0.484375 0.5625,0 1.25,-0.078125 2.0625,-0.234375 v 0.9375 C 7.765625,-0.273438 7.269531,-0.0820312 6.625,0.0625 5.988281,0.21875 5.398438,0.296875 4.859375,0.296875 Z m 0,0"
           id="path71"
           inkscape:connector-curvature="0"
           style="fill:#ffffff;fill-opacity:1" />
      </g>
    </g>
  </g>
  <g
     id="g83"
     style="fill:#1d1d1b;fill-opacity:1"
     transform="translate(-46.459203,-37.808594)">
    <g
       transform="translate(219.05606,153.70159)"
       id="g81">
      <g
         id="g79" />
    </g>
  </g>
  <g
     id="g91"
     style="fill:#ffffff;fill-opacity:1"
     transform="translate(-14.251351,-47.509754)">
    <g
       transform="translate(226.50456,153.70159)"
       id="g89"
       style="fill:#ffffff;fill-opacity:1">
      <g
         id="g87"
         style="fill:#ffffff;fill-opacity:1">
        <path
           d="m 13.765625,-6.921875 c 0,4.8125 -2.136719,7.21875 -6.40625,7.21875 -2.054687,0 -3.605469,-0.613281 -4.65625,-1.84375 -1.042969,-1.238281 -1.5625,-3.03125 -1.5625,-5.375 0,-2.300781 0.519531,-4.0625 1.5625,-5.28125 1.050781,-1.226563 2.644531,-1.84375 4.78125,-1.84375 2.070313,0 3.632813,0.601563 4.6875,1.796875 1.0625,1.199219 1.59375,2.976562 1.59375,5.328125 z m -2.625,0 c 0,-2.09375 -0.308594,-3.609375 -0.921875,-4.546875 -0.605469,-0.945312 -1.558594,-1.421875 -2.859375,-1.421875 -1.273437,0 -2.195313,0.453125 -2.765625,1.359375 C 4.03125,-10.625 3.75,-9.085938 3.75,-6.921875 c 0,2.210937 0.285156,3.773437 0.859375,4.6875 0.582031,0.917969 1.5,1.375 2.75,1.375 1.28125,0 2.226563,-0.472656 2.84375,-1.421875 0.625,-0.957031 0.9375,-2.503906 0.9375,-4.640625 z m 0,0"
           id="path85"
           inkscape:connector-curvature="0"
           style="fill:#ffffff;fill-opacity:1" />
      </g>
    </g>
  </g>
  <g
     id="g99"
     style="fill:#ffffff;fill-opacity:1"
     transform="translate(-14.251351,-47.509754)">
    <g
       transform="translate(241.40155,153.70159)"
       id="g97"
       style="fill:#ffffff;fill-opacity:1">
      <g
         id="g95"
         style="fill:#ffffff;fill-opacity:1">
        <path
           d="M 3.28125,-12.453125 H 0.921875 v -0.71875 l 2.359375,-0.5625 v -0.96875 c 0,-2.019531 0.394531,-3.570313 1.1875,-4.65625 0.800781,-1.082031 1.925781,-1.625 3.375,-1.625 0.75,0 1.441406,0.08984 2.078125,0.265625 v 2.984375 H 9.203125 L 8.5625,-19.515625 c -0.335938,-0.207031 -0.734375,-0.3125 -1.203125,-0.3125 -0.605469,0 -1.039063,0.273437 -1.296875,0.8125 -0.25,0.542969 -0.375,1.5625 -0.375,3.0625 v 2.265625 h 3.640625 v 1.234375 H 5.6875 v 11.3125 L 8.640625,-0.65625 V 0 H 1.25 v -0.65625 l 2.03125,-0.484375 z m 0,0"
           id="path93"
           inkscape:connector-curvature="0"
           style="fill:#ffffff;fill-opacity:1" />
      </g>
    </g>
  </g>
  <g
     id="g105"
     style="fill:#1d1d1b;fill-opacity:1"
     transform="translate(-46.459203,-37.808594)">
    <g
       transform="translate(251.32319,153.70159)"
       id="g103">
      <g
         id="g101" />
    </g>
  </g>
  <g
     id="g113"
     style="fill:#ffffff;fill-opacity:1"
     transform="translate(-14.251351,-47.509754)">
    <g
       transform="translate(258.77169,153.70159)"
       id="g111"
       style="fill:#ffffff;fill-opacity:1">
      <g
         id="g109"
         style="fill:#ffffff;fill-opacity:1">
        <path
           d="m 0.859375,-0.765625 2.5,-0.40625 V -18.375 l -2.5,-0.375 v -0.765625 H 15.5 v 4.671875 H 14.53125 L 14.0625,-18 c -1.085938,-0.132812 -2.652344,-0.203125 -4.703125,-0.203125 h -3.1875 v 7.625 H 11.4375 l 0.453125,-2.328125 H 12.8125 v 5.984375 H 11.890625 L 11.4375,-9.265625 H 6.171875 V -1.3125 h 3.84375 c 2.5,0 4.132813,-0.078125 4.90625,-0.234375 L 15.75,-5.15625 h 0.96875 L 16.4375,0 H 0.859375 Z m 0,0"
           id="path107"
           inkscape:connector-curvature="0"
           style="fill:#ffffff;fill-opacity:1" />
      </g>
    </g>
  </g>
  <g
     id="g121"
     style="fill:#ffffff;fill-opacity:1"
     transform="translate(-14.251351,-47.509754)">
    <g
       transform="translate(276.97105,153.70159)"
       id="g119"
       style="fill:#ffffff;fill-opacity:1">
      <g
         id="g117"
         style="fill:#ffffff;fill-opacity:1">
        <path
           d="M 14.53125,-0.65625 V 0 H 8.34375 V -0.65625 L 10.15625,-0.984375 7,-5.84375 l -3.703125,4.890625 1.875,0.296875 V 0 h -4.90625 v -0.65625 l 1.578125,-0.234375 4.5,-5.9375 -3.953125,-5.84375 -1.625,-0.359375 V -13.6875 H 6.96875 v 0.65625 l -1.8125,0.390625 2.625,3.9375 3.03125,-3.96875 -1.875,-0.359375 v -0.65625 h 4.90625 v 0.65625 l -1.5625,0.3125 -3.84375,4.96875 4.5,6.796875 z m 0,0"
           id="path115"
           inkscape:connector-curvature="0"
           style="fill:#ffffff;fill-opacity:1" />
      </g>
    </g>
  </g>
  <g
     id="g129"
     style="fill:#ffffff;fill-opacity:1"
     transform="translate(-14.251351,-47.509754)">
    <g
       transform="translate(291.86805,153.70159)"
       id="g127"
       style="fill:#ffffff;fill-opacity:1">
      <g
         id="g125"
         style="fill:#ffffff;fill-opacity:1">
        <path
           d="m 10.515625,-3.84375 c 0,1.355469 -0.433594,2.386719 -1.296875,3.09375 -0.855469,0.6992188 -2.121094,1.046875 -3.796875,1.046875 -0.679687,0 -1.429687,-0.074219 -2.25,-0.21875 C 2.359375,-0.0546875 1.71875,-0.210938 1.25,-0.390625 V -3.75 H 1.90625 L 2.625,-1.84375 c 0.71875,0.65625 1.660156,0.984375 2.828125,0.984375 1.882813,0 2.828125,-0.804687 2.828125,-2.421875 0,-1.175781 -0.746094,-2.019531 -2.234375,-2.53125 L 4.75,-6.234375 C 3.769531,-6.546875 3.054688,-6.867188 2.609375,-7.203125 2.171875,-7.535156 1.828125,-7.941406 1.578125,-8.421875 1.335938,-8.898438 1.21875,-9.476562 1.21875,-10.15625 c 0,-1.207031 0.410156,-2.15625 1.234375,-2.84375 0.820313,-0.695312 1.929687,-1.046875 3.328125,-1.046875 1,0 2.25,0.152344 3.75,0.453125 v 2.984375 h -0.6875 l -0.609375,-1.59375 c -0.511719,-0.457031 -1.320313,-0.6875 -2.421875,-0.6875 -0.792969,0 -1.398438,0.199219 -1.8125,0.59375 -0.40625,0.386719 -0.609375,0.90625 -0.609375,1.5625 0,0.554687 0.1875,1.023437 0.5625,1.40625 0.375,0.375 0.9375,0.6875 1.6875,0.9375 C 7.066406,-7.898438 8,-7.539062 8.4375,-7.3125 8.875,-7.09375 9.242188,-6.820312 9.546875,-6.5 c 0.3125,0.324219 0.550781,0.695312 0.71875,1.109375 0.164063,0.417969 0.25,0.933594 0.25,1.546875 z m 0,0"
           id="path123"
           inkscape:connector-curvature="0"
           style="fill:#ffffff;fill-opacity:1" />
      </g>
    </g>
  </g>
  <g
     id="g137"
     style="fill:#ffffff;fill-opacity:1"
     transform="translate(-14.251351,-47.509754)">
    <g
       transform="translate(303.46269,153.70159)"
       id="g135"
       style="fill:#ffffff;fill-opacity:1">
      <g
         id="g133"
         style="fill:#ffffff;fill-opacity:1">
        <path
           d="m 5.515625,-18.15625 c 0,0.429688 -0.15625,0.796875 -0.46875,1.109375 -0.3125,0.3125 -0.6875,0.46875 -1.125,0.46875 -0.429687,0 -0.796875,-0.15625 -1.109375,-0.46875 -0.304688,-0.3125 -0.453125,-0.679687 -0.453125,-1.109375 0,-0.4375 0.148437,-0.804688 0.453125,-1.109375 0.3125,-0.3125 0.679688,-0.46875 1.109375,-0.46875 0.4375,0 0.8125,0.15625 1.125,0.46875 0.3125,0.304687 0.46875,0.671875 0.46875,1.109375 z M 5.375,-1.015625 7.71875,-0.65625 V 0 H 0.625 v -0.65625 l 2.328125,-0.359375 v -11.65625 l -1.9375,-0.359375 V -13.6875 H 5.375 Z m 0,0"
           id="path131"
           inkscape:connector-curvature="0"
           style="fill:#ffffff;fill-opacity:1" />
      </g>
    </g>
  </g>
  <g
     id="g145"
     style="fill:#ffffff;fill-opacity:1"
     transform="translate(-14.251351,-47.509754)">
    <g
       transform="translate(311.74042,153.70159)"
       id="g143"
       style="fill:#ffffff;fill-opacity:1">
      <g
         id="g141"
         style="fill:#ffffff;fill-opacity:1">
        <path
           d="m 4.859375,0.296875 c -0.929687,0 -1.625,-0.2773438 -2.09375,-0.828125 -0.460937,-0.5625 -0.6875,-1.34375 -0.6875,-2.34375 v -9.578125 h -1.78125 v -0.65625 l 1.8125,-0.578125 1.46875,-3.09375 H 4.5 v 3.09375 h 3.125 v 1.234375 H 4.5 V -3.125 c 0,0.625 0.140625,1.101562 0.421875,1.421875 0.289063,0.324219 0.664063,0.484375 1.125,0.484375 0.5625,0 1.25,-0.078125 2.0625,-0.234375 v 0.9375 C 7.765625,-0.273438 7.269531,-0.0820312 6.625,0.0625 5.988281,0.21875 5.398438,0.296875 4.859375,0.296875 Z m 0,0"
           id="path139"
           inkscape:connector-curvature="0"
           style="fill:#ffffff;fill-opacity:1" />
      </g>
    </g>
  </g>
  <g
     id="g153"
     style="fill:#ffffff;fill-opacity:1"
     transform="translate(-14.251351,-47.509754)">
    <g
       transform="translate(320.01816,153.70159)"
       id="g151"
       style="fill:#ffffff;fill-opacity:1">
      <g
         id="g149"
         style="fill:#ffffff;fill-opacity:1">
        <path
           d="M 3.78125,-6.890625 V -6.625 c 0,1.34375 0.144531,2.386719 0.4375,3.125 0.300781,0.742188 0.757812,1.308594 1.375,1.703125 0.613281,0.386719 1.421875,0.578125 2.421875,0.578125 0.519531,0 1.140625,-0.039062 1.859375,-0.125 0.71875,-0.09375 1.3125,-0.191406 1.78125,-0.296875 v 0.8125 C 11.1875,-0.523438 10.550781,-0.257812 9.75,-0.03125 8.957031,0.1875 8.140625,0.296875 7.296875,0.296875 c -2.117187,0 -3.667969,-0.570313 -4.65625,-1.71875 C 1.648438,-2.566406 1.15625,-4.40625 1.15625,-6.9375 c 0,-2.394531 0.5,-4.175781 1.5,-5.34375 1,-1.175781 2.425781,-1.765625 4.28125,-1.765625 3.5,0 5.25,1.992187 5.25,5.96875 v 1.1875 z m 3.15625,-6 c -1.011719,0 -1.789062,0.414063 -2.328125,1.234375 -0.53125,0.8125 -0.796875,2.015625 -0.796875,3.609375 h 5.84375 c 0,-1.738281 -0.226562,-2.976563 -0.671875,-3.71875 -0.4375,-0.75 -1.121094,-1.125 -2.046875,-1.125 z m 0,0"
           id="path147"
           inkscape:connector-curvature="0"
           style="fill:#ffffff;fill-opacity:1" />
      </g>
    </g>
  </g>
  <g
     id="g161"
     style="fill:#ffffff;fill-opacity:1"
     transform="translate(-14.251351,-47.509754)">
    <g
       transform="translate(333.24216,153.70159)"
       id="g159"
       style="fill:#ffffff;fill-opacity:1">
      <g
         id="g157"
         style="fill:#ffffff;fill-opacity:1">
        <path
           d="M 12.3125,-0.828125 C 11.832031,-0.484375 11.175781,-0.207031 10.34375,0 9.507812,0.195312 8.65625,0.296875 7.78125,0.296875 c -4.429688,0 -6.640625,-2.410156 -6.640625,-7.234375 0,-2.28125 0.5625,-4.035156 1.6875,-5.265625 1.132813,-1.226563 2.753906,-1.84375 4.859375,-1.84375 1.300781,0 2.726562,0.152344 4.28125,0.453125 v 3.8125 h -0.796875 l -0.625,-2.421875 c -0.804687,-0.457031 -1.765625,-0.6875 -2.890625,-0.6875 -2.605469,0 -3.90625,1.984375 -3.90625,5.953125 0,2.054688 0.394531,3.523438 1.1875,4.40625 0.789062,0.875 2.015625,1.3125 3.671875,1.3125 1.414063,0 2.648437,-0.160156 3.703125,-0.484375 z m 0,0"
           id="path155"
           inkscape:connector-curvature="0"
           style="fill:#ffffff;fill-opacity:1" />
      </g>
    </g>
  </g>
</svg>
